<svg xmlns="http://www.w3.org/2000/svg" width="1024" height="1024"><path fill="#ced1d2" d="M0 0h1024v1024H0z"/><path fill="#838485" d="M510 230c2.438 1.188 2.438 1.188 5 3l.5 2.563.5 2.437 2.125.813c3.902 1.611 5.72 4.261 8.324 7.507L528 248h2l-.092 1.759c-.848 16.756-1.03 33.466-.908 50.241l3.191 1.332a86 86 0 0 1 8.746 4.356c.773.436 1.545.873 2.34 1.324L545 308l-1 2c2.833 1.625 2.833 1.625 6 3l3-1c2.533 1.105 2.533 1.105 5.566 2.832l3.388 1.908 3.609 2.072q1.83 1.038 3.66 2.071 3.666 2.07 7.323 4.155c4.695 2.667 9.416 5.286 14.141 7.9q2.163 1.2 4.325 2.402L598 337l-.175-2.719c-.188-3.363-.325-6.72-.43-10.086a155 155 0 0 0-.225-4.347c-.772-11.977-.772-11.977 3.062-16.455 2.829-2.07 5.673-3.753 8.768-5.393q2.02-1.334 4.004-2.723a1055 1055 0 0 1 3.558-2.34c5.259-3.46 10.418-7.018 15.485-10.757C634 281 634 281 637 281q.07 14.97.104 29.94.014 6.952.047 13.905.032 6.72.039 13.441.005 2.553.021 5.106c.128 20.778-3.29 41.252-18.008 57.057l-1.426 1.532c-5.86 6.249-11.917 12.31-17.985 18.357a2856 2856 0 0 0-5.962 5.969c-5.552 5.554-11.079 11.065-17.07 16.15-3.425 3.002-6.572 6.293-9.76 9.543q-1.995 2.034-4 4.063l-1.75 1.785a161 161 0 0 1-15.33 12.935c-8.267 6.586-15.217 13.198-16.715 24.072-.916 8.592-.672 17.254-.435 25.876.098 4.346.08 8.693.077 13.04.009 8.2.119 16.396.267 24.594.164 9.348.213 18.694.253 28.042.084 19.2.31 38.396.633 57.593-6.544 1.144-12.867 1.184-19.5 1.188l-3.668.037-3.55.005-3.218.013c-3.297-.261-5.955-1.153-9.064-2.243l.007-2.43q.078-29.283.016-58.566c-.019-9.441-.023-18.882.008-28.323q.041-12.345-.01-24.69c-.017-4.357-.02-8.713.01-13.07.028-4.104.018-8.207-.02-12.311a239 239 0 0 1 .02-4.508c.238-8.23.238-8.23-2.74-15.702-1.996-2.03-4.003-3.714-6.291-5.4a389 389 0 0 1-3.937-3.437l-2-1.723c-4.666-4.162-8.97-8.712-13.352-13.168l-2.274-2.297-2.003-2.04c-2.031-1.949-4.099-3.792-6.229-5.63-4.16-3.615-8.053-7.442-11.924-11.361l-2.128-2.14q-4.449-4.476-8.89-8.961-3.27-3.296-6.544-6.587l-1.986-2.011a195 195 0 0 0-11.913-11.023C393.576 394.038 385.405 375.132 384 355c-.134-5.69-.117-11.376-.098-17.066l.005-4.94q.006-6.457.024-12.916.014-6.606.02-13.213.016-12.933.049-25.865c4.079.873 7.095 2.82 10.523 5.113l1.89 1.245c1.991 1.313 3.977 2.634 5.962 3.954l3.984 2.631q5.327 3.52 10.641 7.057l3.388 1.82C423 305 423 305 423.68 308.392q-.002 2-.095 3.999l-.026 2.135a351 351 0 0 1-.185 6.724q-.045 2.285-.082 4.57A726 726 0 0 1 423 337a817 817 0 0 0 32.33-17.745l2.846-1.63 2.528-1.46c2.802-1.421 5.157-2.165 8.296-2.165l1-1v-2c3.014-1.005 6.024-2.007 9.063-2.937 2.946-1.066 5.378-2.256 7.937-4.063v-2h4c1.18-2.36 1.11-3.726 1.082-6.354l-.02-2.732-.035-2.96-.037-6.188q-.036-4.885-.086-9.77c-.03-3.14-.048-6.278-.064-9.418l-.04-2.936c-.025-6.552.369-12.032 4.88-17.15l1.566-1.8 1.629-1.817 1.605-1.84c2.74-3.12 5.54-6.14 8.52-9.035"/><path fill="#353637" d="M369 351h1l.262 2.832c1.446 14.08 3.678 28.891 11.699 40.844 1.426 3.19.954 4.987.039 8.324-1.2 2.578-1.2 2.578-2.687 5.25-6.428 12.468-10.065 25.956-12.313 39.75l-.555 3.266c-4.17 34.965 6.614 71.465 27.86 99.39 12.471 15.76 27.5 28.027 44.695 38.344V459c3.391 1.696 4.794 2.583 7.25 5.188 2.37 2.445 4.775 4.737 7.375 6.937 4.447 3.822 8.535 7.979 12.631 12.168l1.596 1.621 1.4 1.436c1.824 1.857 1.824 1.857 4.815 3.363 2.348 1.978 2.89 3.066 3.48 6.122.194 3.81.195 7.598.134 11.41q-.002 2.204.003 4.406c.002 3.982-.034 7.962-.076 11.943-.037 4.163-.04 8.326-.048 12.488-.018 7.88-.068 15.76-.128 23.64-.067 8.972-.1 17.944-.13 26.917A14387 14387 0 0 1 477 642c-43.158-5.248-84.25-31.852-110.906-65.625C346.058 550.205 333.789 520.54 329 488l-.582-3.832C324.492 450.97 331.345 416.811 346 387l.944-1.958c5.25-10.79 11.95-20.4 19.056-30.042l1.793-2.488z"/><path fill="#313233" d="M651 351h2c1.186 1.323 1.186 1.323 2.504 3.191l1.481 2.09 1.577 2.281 1.63 2.35c18.716 27.215 32.692 59.854 33.046 93.373l.03 2.334c.173 17.143 0 33.662-4.268 50.381l-.65 2.595c-9.625 37.36-31.623 71.91-62.35 95.405l-2.832 2.344C608.816 618.988 592.353 627.738 575 634l-1.992.721C552.625 642 552.625 642 544 642a5448 5448 0 0 1-.829-57.504c-.082-8.903-.194-17.804-.378-26.705-.16-7.764-.263-15.527-.298-23.294-.021-4.108-.07-8.21-.187-12.317-.74-26.93-.74-26.93 5.18-34.448 3.225-3.328 6.719-5.995 10.621-8.479 2.645-1.753 4.81-3.895 7.032-6.148l2.113-2.013q2.07-1.976 4.133-3.961l2.066-1.963 1.786-1.71C577 462 577 462 581 460v129c21.155-13.018 39.513-27.916 53-49l1.914-2.941C654.317 507.265 659.912 468.998 652 435c-3.023-11.353-7.016-22.018-12.91-32.187C638 400 638 400 638.633 397.539L640 395l1.402-3.164 1.535-3.461c5.302-12.341 6.894-24.1 8.063-37.375"/><path fill="#f9f9f9" d="M514 334a101 101 0 0 1 5.84 3.176l3.438 1.991 1.808 1.06c3.146 1.844 6.306 3.665 9.465 5.488l1.922 1.111c5.669 3.273 11.395 6.433 17.152 9.549l2.672 1.448 5.169 2.801c4.188 2.274 8.363 4.57 12.534 6.876l2.194 1.205A143 143 0 0 1 588 376c-1.666 4.334-4.875 7.133-8.125 10.313l-1.648 1.646a169 169 0 0 1-8.97 8.271c-5.359 4.642-10.283 9.725-15.257 14.77-10.506 10.656-10.506 10.656-14.937 14.441-5.66 4.841-10.822 10.212-16.063 15.497l-3.215 3.228Q515.89 448.079 512 452c-6.01-2.83-10.372-7.349-15-12l-5.393-5.418q-4.32-4.34-8.644-8.674l-4.535-4.555a5265 5265 0 0 0-6.604-6.626l-2.015-2.03c-3.86-3.862-7.84-7.516-11.972-11.084-2.487-2.184-4.818-4.5-7.142-6.855l-2.765-2.79q-2.124-2.152-4.246-4.305-2.086-2.111-4.176-4.218l-2.48-2.515c-1.88-1.978-1.88-1.978-4.028-2.93v-2l2.281-1.247c13.113-7.175 26.203-14.372 39.094-21.94l2.902-1.698c3.973-2.327 7.946-4.655 11.909-7 3.16-1.864 6.33-3.71 9.502-5.553l2.917-1.74 2.72-1.568 2.377-1.396c2.952-1.102 4.314-.831 7.298.142"/><path fill="#040404" d="M444 702c11.131 8.825 19.125 18.575 21 33 .731 14.662-1.722 26.594-11.187 38.313-9.558 10.014-23.23 15.583-36.978 16.228-14.523.154-27.035-5.007-37.647-14.854-10.554-11.337-13.063-23.825-12.594-38.832.392-6.355 2.132-11.401 5.406-16.855l1.727-2.887c7.346-11.08 18.23-18.393 31.148-21.363 12.856-2.172 28.137-.385 39.125 7.25"/><path fill="#050505" d="m569 696 22.875-.125 7.16-.055q2.853-.009 5.707-.015l2.92-.031c14.417-.004 27.576 3.551 38.147 13.765 8.402 9.436 11.718 19.408 11.629 31.836l.06 2.96c-.008 11.605-4.691 21.258-12.428 29.794C624.665 793.824 595.307 788 569 788z"/><path fill="#030303" d="M469 696c7.599-1.753 15.613-3.052 23 0 6.661 6.468 10.478 15.345 14.383 23.647 3.524 8.298 3.524 8.298 9.617 14.353l.73-2.034c1.567-3.659 3.545-7.013 5.586-10.42l1.263-2.123q1.314-2.21 2.635-4.417a2807 2807 0 0 0 4.042-6.787l2.56-4.297 1.225-2.058c2.842-4.747 2.842-4.747 3.959-5.864a83 83 0 0 1 4.91-.098l2.998.01 3.154.025 3.167.014q3.885.018 7.771.049c-1.244 3.276-2.63 6.262-4.434 9.266l-1.45 2.42-1.553 2.564-1.615 2.678a532 532 0 0 1-9.267 14.782 403 403 0 0 0-2.723 4.242c-2.06 3.239-4.127 6.314-6.61 9.243-10.051 12.697-7.565 30.46-7.348 45.805h-21l.063-6.727a978 978 0 0 0-.05-6.603q-.013-2.258.018-4.515c.152-11.984-2.362-19.289-9.031-29.155a958 958 0 0 1-3.93-6.492 3477 3477 0 0 0-3.945-6.383l-2.09-3.389a1609 1609 0 0 0-9.293-14.9l-1.426-2.258a728 728 0 0 0-2.573-4.035C469 698.22 469 698.22 469 696"/><path fill="#e8e9e9" d="M431 716c5.864 4.024 9.757 9.272 12 16 .677 10.395 1.213 20.514-5.648 29.05-6.279 6.622-13.02 9.911-22.227 10.325-7.608-.185-13.973-3.452-19.555-8.527-7.003-8.24-8.201-17.429-7.57-27.848 1.294-8.412 6.354-14.116 12.738-19.453 8.183-5.153 22.066-3.949 30.262.453M590 714c31.778 0 31.778 0 40 8 6.074 8.482 6.567 15.768 6 26-1.097 6.525-3.968 11.675-9 16-12.265 7.643-20.086 5-37 5z"/><path fill="#5c5c5c" d="M439 459c4.538 2.269 5.947 4.099 9 8a56.5 56.5 0 0 1-7-4l.505 3.45c.818 7.423.524 14.886.41 22.34q-.034 2.496-.065 4.994-.069 5.252-.147 10.505-.096 6.54-.178 13.077c-.31 24.217-.847 48.425-1.525 72.634l-2-1z"/><path fill="#8f8f8f" d="m572 467 2 1c-14.65 14.836-14.65 14.836-19.687 19.125-2.833 2.431-5.37 4.637-7.313 7.875-.335 3.71-.335 3.71 0 7h-2v140h-1a5448 5448 0 0 1-.829-57.504c-.082-8.903-.194-17.804-.378-26.705-.16-7.764-.263-15.527-.298-23.294-.021-4.108-.07-8.21-.187-12.317-.739-26.911-.739-26.911 5.114-34.394 3.198-3.308 6.668-5.935 10.537-8.408 3.336-2.252 6.148-5.032 9.041-7.815a4809 4809 0 0 1 5-4.563"/><path fill="#5c5f5f" d="m533 430 3 1-1.426 1.355c-3.446 3.347-6.264 6.39-8.574 10.645l-2 2-.875 2.063C522 449 522 449 519.875 449.75L518 450l-1 4 3-1c.93 2.606 1.15 3.642.063 6.25L519 461l-3-1v-2l-3-1-2-5z"/><path fill="#b8b8b8" d="M491 247h1c.927 10.504 1.247 20.959 1.295 31.499q.018 2.653.062 5.306c.042 2.588.058 5.176.069 7.765l.053 2.39c-.022 5.536-.022 5.536-2.508 8.278L489 304q.16-10.927.34-21.853.083-5.073.157-10.146.087-5.827.187-11.653l.05-3.697.06-3.397.048-3.008C490 248 490 248 491 247"/><path fill="#4a4c4c" d="M414 411c3.749 1.557 6.09 3.873 8.914 6.754l2.805 2.838 2.906 2.97q2.859 2.913 5.727 5.817l2.557 2.611c1.927 2.052 1.927 2.052 4.091 3.01v2h2a141 141 0 0 1 5 5l1.813 1.688C451 445 451 445 451 447l4 2c-3.634 0-4.115-.667-6.729-3.05l-2.14-1.944a412 412 0 0 1-9.475-9.217l-1.983-1.98q-2.048-2.048-4.094-4.1a3183 3183 0 0 0-6.306-6.299l-3.992-3.996-1.912-1.906C414 412.115 414 412.115 414 411"/><path fill="#6a6b6a" d="m572 467 2 1c-14.65 14.836-14.65 14.836-19.687 19.125-2.833 2.431-5.37 4.637-7.313 7.875-.335 3.71-.335 3.71 0 7h-2c-1.02-8.352-1.02-8.352 1.213-11.96 1.755-1.804 3.58-3.394 5.537-4.978l2.041-1.77a360 360 0 0 1 4.168-3.558c3.076-2.614 6.022-5.362 8.979-8.109q1.48-1.357 2.964-2.71z"/><path fill="#707171" d="M636 322h1q.074 7.629.11 15.259.015 2.589.04 5.178c.09 9.104.165 17.686-2.15 26.563l-2-2c.356-1.861.356-1.861 1-4q.201-2.105.297-4.218l.121-2.486.117-2.655.13-2.74q.204-4.326.398-8.651.136-2.935.275-5.871.337-7.19.662-14.379"/><path fill="#555756" d="m648 374 3 1c-1.572 5.642-3.277 10.792-6 16-.7 1.989-1.377 3.986-2 6h-2l-1 5c-1.2-1.586-1.2-1.586-2-4a50.4 50.4 0 0 1 3.188-6.625c3.038-5.65 5.296-11.11 6.812-17.375"/><path fill="#575757" d="M439 459c4.255 2.02 6.107 4.304 9 8a56.5 56.5 0 0 1-7-4l.563 3.625c.747 6.488.036 12.897-.563 19.375h-1c-.889-6.048-1.123-11.892-1.062-18l.013-2.637q.02-3.18.049-6.363"/><path fill="#525353" d="m361 362 2 2-15 24-2-1c4.491-8.749 9.065-17.117 15-25"/><path fill="#707272" d="m533 430 3 1-1.426 1.355c-3.997 3.873-3.997 3.873-7.199 8.395-1.723 2.819-3.382 3.903-6.375 5.25l-3-1z"/><path fill="#9b9c9b" d="M636 282v36h-1a2548 2548 0 0 1-.562-11.937l-.17-3.385c-.28-6.372-.172-12.362.732-18.678l-1.898 1.277-2.477 1.66-2.46 1.653C626 290 626 290 624 291c.125-1.75.125-1.75 1-4 3.346-2.603 6.611-5 11-5"/><path fill="#757877" d="m586 374 4 2c-1.392 3.085-3.044 5.37-5.312 7.875A330 330 0 0 0 576 394l-4-1 1.393-1.313c2.07-1.966 4.12-3.951 6.17-5.937l2.193-2.066 2.06-2.012 1.92-1.84c1.527-1.773 1.527-1.773.963-4.061z"/><path fill="#a2a2a2" d="m404 293 2.125 1.355c5.61 3.575 11.229 7.13 16.875 10.645l-1 10h-1l.065-1.78c-.096-4.882-.096-4.882-2.648-8.852-2.107-1.39-4.234-2.589-6.48-3.743q-2.244-1.215-4.472-2.46l-2.012-1.05c-.48-.367-.959-.736-1.453-1.115z"/><path fill="#6a6d6d" d="m507 450 3 1c-.125 2.75-.125 2.75-1 6-3.062 2.375-3.062 2.375-6 4l-3-2 2-3h3v-2h3v-2l-2-1z"/><path fill="#18191a" d="m656 457 2 1c1.92 7.382.522 14.682-1 22h-1z"/><path fill="#6a6c6c" d="m511 452 10 4-1 5-4-1v-2l-3-1z"/><path fill="#e2e2e2" d="m456 769 3 1-12 12-2-2 1.39-1.137c3.643-3.038 6.782-6.017 9.61-9.863"/><path fill="#b2b2b1" d="M491 247h1l1 13h-2v5h-1q-.04-4.22-.062-8.437l-.026-2.432c-.009-2.044.036-4.088.088-6.131z"/><path fill="#2c2c2c" d="M404 563c5.47 3.79 9.9 7.75 14 13-3.664-1.575-6.299-3.842-9.25-6.5l-2.703-2.406C404 565 404 565 404 563"/><path fill="#b7b7b7" d="M518 236c4.526 3.678 8.394 7.41 12 12-3 0-3 0-4.754-1.715l-1.808-2.222c-2.35-2.99-2.35-2.99-5.438-5.063z"/><path fill="#a1a1a1" d="m451 323 2 1Zm0 2-11 6c1-4 1-4 3.813-5.812C447 324 447 324 451 325"/><path fill="#acacac" d="M488 304c-3.901 2.786-7.385 4.681-12 6 1-3 1-3 2.742-4.203l2.133-1.047 2.117-1.078C485 303 485 303 488 304"/><path fill="#a7a8a8" d="m620 291 2 1c-3.424 3.827-6.007 5.723-11 7 1.16-3.482 1.91-3.888 4.938-5.75l2.152-1.36z"/><path fill="#9f9f9f" d="m608 299 2 1-10 8-1-3z"/><path fill="#dbdbdb" d="M399 717h2c-1.555 3.817-4.036 6.192-7 9l-2-1a564 564 0 0 1 3.375-4l1.898-2.25z"/><path fill="#5d5e5e" d="m648 374 3 1-3 10c-2-4-2-4-1.125-7.75z"/><path fill="#535656" d="M512 451h6l-1 3 3-1v3c-3.437-.812-3.437-.812-7-2z"/><path fill="#666767" d="M635 356h1q.079 2.687.125 5.375l.07 3.023C636 367 636 367 634 369a88 88 0 0 1-1-5l1-1q.553-3.492 1-7"/><path fill="#585a5a" d="m572 467 2 1a517 517 0 0 1-3.375 3.5l-1.898 1.969C567 475 567 475 565 475c1.38-4.142 3.598-5.322 7-8"/><path fill="#585a59" d="M373 376c1.884 3.265 2.493 6.281 3 10l-1-2h-3z"/><path fill="#575857" d="m650 363 3 2v2h-2l-1 7c-1.374-3.818-.68-7.073 0-11"/><path fill="#adadad" d="M542 309c6.75.875 6.75.875 9 2l-1 3-8-4z"/><path fill="#dcdcdc" d="m456 769 3 1-5 5-2-1z"/><path fill="#232325" d="M445 632c4.22.48 6.797 1.166 10 4-6.523-.615-6.523-.615-8.937-2.562z"/><path fill="#e8e8e8" d="M634 597c2.25.25 2.25.25 4 1l-6 5-2-2c1.75-2.062 1.75-2.062 4-4"/><path fill="#696c6b" d="m525 441 2 1h-3zm-4 1 3 1-3 3-3-1z"/></svg>